<svg id="Слой_2" data-name="Слой 2" xmlns="http://www.w3.org/2000/svg" viewBox="0 0 357.85 208"><defs><style>.cls-1{fill:#38b671;}.cls-2{fill:#f0575c;}.cls-3{fill:#189fda;}.cls-4{fill:#edc84e;}.cls-5{fill:#010101;}</style></defs><title>nerds</title><rect id="line-green-5" class="cls-1" x="249.35" y="374.35" width="14.54" height="7" transform="translate(-56.05 -213.27) rotate(-2.3)"/><path id="line-wave" class="cls-2" d="M186.82,306c.14.14.29.25.44.38l4.62-5.59c-1.88-1.65-1.06-3.89-1.08-5.86a18.86,18.86,0,0,0-.24-4.65,10.91,10.91,0,0,0-2.23-4.38,8.34,8.34,0,0,0-6.54-2.68,20.58,20.58,0,0,0-6.33,1.71c-1.69.62-4.1,2.23-6,1.45-2.1-.86-1.27-4.88-1.27-6.55,0-4.58-.54-9.69-5.44-11.67a11,11,0,0,0-7.59.11c-2.18.73-4.15,2.56-6.39,2.95a2.3,2.3,0,0,1-2.91-1.94c-.32-2.36.13-4.84,0-7.22a9.53,9.53,0,0,0-3.48-7.22,9,9,0,0,0-7.24-1.29,45.85,45.85,0,0,0-6.71,2.53,9.52,9.52,0,0,1-1.58.48,2.42,2.42,0,0,1-3-2.44c-.14-1.93,0-3.87,0-5.81,0-3.37-.54-6.48-3.4-8.74-.16-.13-.32-.23-.48-.34L116.24,244a2,2,0,0,1,1.35,1.18c.87,2-.19,4-.17,5.94a18.88,18.88,0,0,0,.26,4.59,10.67,10.67,0,0,0,2.21,4.31,7.77,7.77,0,0,0,5.93,2.65,8.25,8.25,0,0,0,2.54-.23,35.18,35.18,0,0,0,4.19-1.45c1.55-.58,5-2.74,6.5-1.1,1.37,1.48.73,4.27.74,6,0,6.54,2.42,12.8,10.18,12.08a18.38,18.38,0,0,0,4.38-1.38c1.55-.57,2.74-2,4.38-2.35,5.33-1.21,3,8.17,3.34,10.67a9,9,0,0,0,3.81,6.41,9.61,9.61,0,0,0,8.08.73c2.3-.75,4.25-2.71,6.6-3.24a3.09,3.09,0,0,1,3.65,3.05c.13,2,0,3.93-.07,5.9C184.09,300.76,184.72,303.86,186.82,306Z" transform="translate(-41.07 -223.89)"/><circle id="circle-blue-small" class="cls-3" cx="103.94" cy="42.16" r="13.45"/><circle id="circle-green-small" class="cls-1" cx="91.28" cy="187.99" r="20.01"/><circle id="circle-blue-medium" class="cls-3" cx="211.16" cy="168.46" r="18.29"/><circle id="circle-green-medium" class="cls-1" cx="270.87" cy="115" r="22.73"/><circle id="circle-red-large" class="cls-2" cx="215.74" cy="36.81" r="36.81"/><circle id="circle-yellow-large" class="cls-4" cx="139.49" cy="120.71" r="30.6"/><rect id="line-green-4" class="cls-1" x="55.01" y="317.27" width="18.71" height="7" transform="translate(-30.72 -225.79) rotate(1.84)"/><rect id="line-green-3" class="cls-1" x="194.32" y="280.73" width="19.64" height="7" transform="translate(248.71 -278.97) rotate(49.85)"/><rect id="line-yellow-2" class="cls-4" x="156.91" y="377.22" width="48.32" height="7" transform="translate(-196.09 -97.68) rotate(-27.43)"/><rect id="line-red-1" class="cls-2" x="285.31" y="371.03" width="56.11" height="7" transform="translate(31.67 -274.29) rotate(10.4)"/><rect id="line-green-2" class="cls-1" x="370.31" y="356.14" width="18.67" height="7" transform="translate(81.09 -319.41) rotate(17.05)"/><rect id="line-yellow-3" class="cls-4" x="329.93" y="106.98" width="27.92" height="7"/><rect id="line-green-1" class="cls-1" x="301.45" y="288.34" width="75.71" height="7" transform="translate(-109.65 -116.24) rotate(-16.4)"/><rect id="line-red-2" class="cls-2" x="41.5" y="348.14" width="27.39" height="7" transform="translate(-115.43 -203.78) rotate(-12.42)"/><rect id="line-yellow-1" class="cls-4" x="100.68" y="287.83" width="42.65" height="7" transform="translate(63.43 -247.92) rotate(19.55)"/><g id="nerds-text"><path class="cls-5" d="M176.85,288.43c-5.43,2.61-6.46,7.42-4.22,9.91,5.36,5.84,17.07.55,13.27-7.24C183.36,285.88,179.56,287.09,176.85,288.43Z" transform="translate(-41.07 -223.89)"/><path class="cls-5" d="M180.22,348.65c-6.55,7.52-13.36,4.13-16.22-3.47l.73-.25c13.85-5.53,22.54-20.56,17.05-29.07-7.54-11.73-31.14-1.24-34.09,15.2-2.71,15.2,4.34,25.36,15.73,26.6,8,.91,16.23-1.57,19.42-6.69C185.55,346.67,183.33,345.18,180.22,348.65Zm-17.37-8.59a29.46,29.46,0,0,1-.08-6.11c1.72-15,6.63-21.23,9.17-17.26C174.32,320.48,171.45,334,162.85,340.06Z" transform="translate(-41.07 -223.89)"/><path class="cls-5" d="M275.16,312.22c-1.2,8.31-1.17,17.13-.17,17.18.49,0,3.39-.51,4.32-2.21,2.7-5,4.84-15.54,9.21-17.77C292.7,307.29,276.63,302,275.16,312.22Z" transform="translate(-41.07 -223.89)"/><path class="cls-5" d="M142.11,350.13c-2.63,1.9-2.38-1.4.57-25.77,1.72-13.63-7.38-16.85-18.28-10-4,2.49-7.54,8.1-10,15a69.66,69.66,0,0,1,2-11.65c2.54-9.75.65-14.95-11.15-11.73-1.56.41-3.28,9.33-3.28,22.3,0,15.78,1.23,27.43,2.79,28.58,4.51,3.39,12.21.91,11.72-1.48s-1.1-4.66-1.48-7c.08-9.83,2.71-20.16,6.89-24.13,3.19-3.05,6.72-2.14,4.59,13.88-3,22.06,6.31,23.79,17.94,15.95C147.51,352,145.39,347.82,142.11,350.13Z" transform="translate(-41.07 -223.89)"/><path class="cls-5" d="M163.92,294.25c-2.33-4.8-5.82-3.69-8.32-2.46-5,2.4-5.92,6.82-3.87,9.1C156.66,306.26,167.41,301.4,163.92,294.25Z" transform="translate(-41.07 -223.89)"/><path class="cls-5" d="M334.4,332.05c-1.82.16-3.63.24-5.52.4.08-13.75-9.91-15.54-21-12.22-1.88.56-7.32-.47,6.63-5.48,7-2.52,11.49-4,2-12.25-3.08-2.7-32,10.4-24.59,23.67,8.39,15.09,32.39-9.54,31.76,6.76-17.35,1.67-34.78,4.29-34.39,13.36.87,20,35.81,15.82,39.36-9.7v-.09c1.81-.15,3.71-.31,5.52-.55C338,335.63,337.79,331.74,334.4,332.05Zm-35,12.88c-1.27-4.29,10.33-6.36,23.74-7.87C319.33,355,301.9,353.12,299.38,344.93Z" transform="translate(-41.07 -223.89)"/><path class="cls-5" d="M226.08,325.28a1.15,1.15,0,0,1,0-.15A.88.88,0,0,0,226.08,325.28Z" transform="translate(-41.07 -223.89)"/><path class="cls-5" d="M213.83,310.43c-4.83,2.39-10.82,11.48-14.42,21.31a95.15,95.15,0,0,1,4.18-15.28c2.95-8.76-2.54-13.22-12-10.66-1.55.41-4.42,11.9-4.42,24.87,0,15.77.82,24.86,2.38,26,4.5,3.47,12.53.91,11.71-1.41-.32-.91-.57-1.82-.82-2.72a2.4,2.4,0,0,0-.08-.75c-1.56-10.24,4.43-24.45,9.34-28.25,1.32-1.07,3.12-.33,3.36,2.48-4,2-5.32,5.45-5.32,6.94,0,4,4.09,5,7.62,4,3-1,6.42-3.75,8.77-7.43a15.73,15.73,0,0,0,1.92-4.23c-.06.14.55-2,.62-2.71a2.59,2.59,0,0,1,.16-.66C228.66,311.83,222.44,306.13,213.83,310.43Z" transform="translate(-41.07 -223.89)"/><path class="cls-5" d="M276.62,349.66c-3.86,4.29-7.87.17-8.94-3-1.8-5.87-2.45-19-.9-33.79q.59-5.56,1.64-11.07c28.77-11.89,30.16-32.88,17-37.67-11.89-4.29-26.55,8.76-31.39,35.69a68.75,68.75,0,0,1-7.29.41c-15.49,0-13.12-19.91-7.71-23.37,3-1.9,2-7.6-7.78.82-8.61,7.52-20.74,36.27,14.5,30.4,2.44-.4,4.88-.87,7.29-1.4-.08.41-.08.82-.16,1.23-.16,2.07-.33,4.05-.49,6-8-4.22-21.72,1.56-24.59,17.42-2.7,15,3,25.61,12.79,26.68,4.83.5,8.6-1.32,11.72-4.54a12.78,12.78,0,0,0,2.29-3.38c1.64,4.54,4.43,7.51,9,8.09,6.39.66,12.78-1.65,16.22-5C285.39,347.68,280.79,345,276.62,349.66Zm11.14-75.42c1.81,2.81-3.77,14.37-17.78,21.07C275.55,275.07,285.14,270.36,287.76,274.24Zm-39.33,75.92c-3.12,3-8.61-3.56-7.22-15.86,1.23-10.5,6.07-18.1,11-15.87,0,.67-.09,1.41-.09,2.15-.08,6-.08,11.9.25,17.1C252,340.16,250.8,347.76,248.43,350.16Z" transform="translate(-41.07 -223.89)"/></g></svg>